<svg width="48" height="48" viewBox="0 0 48 48" fill="none" xmlns="http://www.w3.org/2000/svg">
    <g filter="url(#filter0_d_13_215)">
        <g clip-path="url(#clip0_13_215)">
            <path
                d="M33.3333 0H14.6667C8.77563 0 4 4.71279 4 10.5263V29.4737C4 35.2872 8.77563 40 14.6667 40H33.3333C39.2244 40 44 35.2872 44 29.4737V10.5263C44 4.71279 39.2244 0 33.3333 0Z"
                fill="#20B367" fill-opacity="0.16" />
            <path
                d="M31.7334 1.57898H16.2668C10.3757 1.57898 5.6001 6.29177 5.6001 12.1053V27.8948C5.6001 33.7083 10.3757 38.4211 16.2668 38.4211H31.7334C37.6245 38.4211 42.4001 33.7083 42.4001 27.8948V12.1053C42.4001 6.29177 37.6245 1.57898 31.7334 1.57898Z"
                fill="url(#paint0_linear_13_215)" />
            <path
                d="M11.7214 15.3368C11.3551 15.3368 11.0476 15.2509 10.7987 15.0789C10.5498 14.9035 10.3738 14.6491 10.2707 14.3158C10.2671 14.3088 10.2654 14.3 10.2654 14.2895C10.2654 14.2614 10.2831 14.2421 10.3187 14.2316L10.8734 14.1L10.8947 14.0947C10.9267 14.0947 10.948 14.1122 10.9587 14.1473C11.0298 14.3193 11.124 14.4456 11.2414 14.5263C11.3623 14.6035 11.5223 14.6421 11.7214 14.6421C11.9205 14.6421 12.0751 14.6088 12.1854 14.5421C12.2991 14.4754 12.356 14.3719 12.356 14.2316C12.356 14.0982 12.3027 13.9895 12.196 13.9052C12.093 13.8175 11.933 13.7351 11.716 13.6579L11.3694 13.5368C10.701 13.3122 10.3667 12.9368 10.3667 12.4105C10.3667 12.2035 10.4236 12.0175 10.5374 11.8526C10.6547 11.6877 10.813 11.5596 11.012 11.4684C11.2111 11.3737 11.4334 11.3263 11.6787 11.3263C12.013 11.3263 12.2956 11.4052 12.5267 11.5631C12.7614 11.7175 12.9267 11.9526 13.0227 12.2684C13.0263 12.2754 13.028 12.2842 13.028 12.2947C13.028 12.3228 13.0103 12.3421 12.9747 12.3526L12.388 12.5L12.3667 12.5052C12.3347 12.5052 12.3134 12.4877 12.3027 12.4526C12.2387 12.2982 12.157 12.1877 12.0574 12.121C11.9578 12.0543 11.8316 12.021 11.6787 12.021C11.508 12.021 11.3711 12.0543 11.268 12.121C11.165 12.1877 11.1134 12.2772 11.1134 12.3895C11.1134 12.5088 11.165 12.6122 11.268 12.7C11.3747 12.7842 11.5436 12.8649 11.7747 12.9421L12.052 13.0316C12.4147 13.1509 12.6796 13.3035 12.8467 13.4895C13.0174 13.6719 13.1027 13.9193 13.1027 14.2316C13.1027 14.4421 13.044 14.6316 12.9267 14.8C12.8094 14.9684 12.6458 15.1 12.436 15.1947C12.2263 15.2895 11.988 15.3368 11.7214 15.3368ZM13.725 13.8737C13.6788 13.8737 13.6557 13.8509 13.6557 13.8052V13.2947C13.6557 13.2491 13.6788 13.2263 13.725 13.2263H15.3197C15.3659 13.2263 15.389 13.2491 15.389 13.2947V13.8052C15.389 13.8509 15.3659 13.8737 15.3197 13.8737H13.725ZM17.1053 15.2631C17.0626 15.2631 17.0359 15.2456 17.0253 15.2105L15.6599 11.4789C15.6564 11.4719 15.6546 11.4631 15.6546 11.4526C15.6546 11.4386 15.6599 11.4263 15.6706 11.4158C15.6848 11.4052 15.7008 11.4 15.7186 11.4H16.3959C16.4351 11.4 16.4599 11.4193 16.4706 11.4579L17.3293 14.0631L18.1986 11.4579C18.2093 11.4193 18.2342 11.4 18.2733 11.4H18.7533C18.7924 11.4 18.8173 11.4193 18.8279 11.4579L19.6973 14.0684L20.5613 11.4579C20.5719 11.4193 20.5968 11.4 20.6359 11.4H21.2973C21.3222 11.4 21.3399 11.407 21.3506 11.421C21.3613 11.4351 21.3631 11.4543 21.3559 11.4789L19.9906 15.2105C19.9799 15.2456 19.9533 15.2631 19.9106 15.2631H19.4199C19.3808 15.2631 19.3559 15.2438 19.3453 15.2052L18.5079 12.6895L17.6706 15.2052C17.6599 15.2438 17.6351 15.2631 17.5959 15.2631H17.1053ZM21.1613 15.2631C21.1365 15.2631 21.1187 15.2561 21.108 15.2421C21.0973 15.228 21.0973 15.2088 21.108 15.1842L22.6707 11.4526C22.6849 11.4175 22.7116 11.4 22.7507 11.4H23.2467C23.2858 11.4 23.3125 11.4175 23.3267 11.4526L24.8893 15.1842C24.8929 15.1912 24.8947 15.2017 24.8947 15.2158C24.8947 15.2473 24.8751 15.2631 24.836 15.2631H24.164C24.1249 15.2631 24.0982 15.2456 24.084 15.2105L23.8067 14.4895H22.18L21.9027 15.2105C21.8885 15.2456 21.8618 15.2631 21.8227 15.2631H21.1613ZM22.4307 13.8316H23.5507L22.9907 12.3684L22.4307 13.8316ZM25.5023 15.2631C25.4561 15.2631 25.433 15.2403 25.433 15.1947V11.4684C25.433 11.4228 25.4561 11.4 25.5023 11.4H26.0836C26.1299 11.4 26.153 11.4228 26.153 11.4684V14.5842H28.041C28.0872 14.5842 28.1103 14.607 28.1103 14.6526V15.1947C28.1103 15.2403 28.0872 15.2631 28.041 15.2631H25.5023ZM28.7679 15.2631C28.7217 15.2631 28.6986 15.2403 28.6986 15.1947V11.4684C28.6986 11.4228 28.7217 11.4 28.7679 11.4H29.3493C29.3955 11.4 29.4186 11.4228 29.4186 11.4684V14.5842H31.3066C31.3528 14.5842 31.3759 14.607 31.3759 14.6526V15.1947C31.3759 15.2403 31.3528 15.2631 31.3066 15.2631H28.7679ZM32.0335 15.2631C31.9873 15.2631 31.9642 15.2403 31.9642 15.1947V11.4684C31.9642 11.4228 31.9873 11.4 32.0335 11.4H34.5082C34.5544 11.4 34.5775 11.4228 34.5775 11.4684V12C34.5775 12.0456 34.5544 12.0684 34.5082 12.0684H32.6842V12.9473H34.3322C34.3784 12.9473 34.4015 12.9701 34.4015 13.0158V13.5368C34.4015 13.5825 34.3784 13.6052 34.3322 13.6052H32.6842V14.5947H34.5722C34.6184 14.5947 34.6415 14.6175 34.6415 14.6631V15.1947C34.6415 15.2403 34.6184 15.2631 34.5722 15.2631H32.0335ZM36.3488 15.2631C36.3026 15.2631 36.2795 15.2403 36.2795 15.1947V12.0684H35.0688C35.0262 12.0684 35.0048 12.0456 35.0048 12V11.4684C35.0048 11.4228 35.0262 11.4 35.0688 11.4H38.2048C38.2511 11.4 38.2742 11.4228 38.2742 11.4684V12C38.2742 12.0456 38.2511 12.0684 38.2048 12.0684H36.9995V15.1947C36.9995 15.2403 36.9764 15.2631 36.9302 15.2631H36.3488ZM10.6836 27.8947C10.5243 27.8947 10.4447 27.8161 10.4447 27.6589V17.3137C10.4447 17.1565 10.5243 17.0779 10.6836 17.0779H14.3423C15.8555 17.0779 17.0004 17.4119 17.777 18.08C18.5535 18.748 18.9418 19.7354 18.9418 21.0421C18.9418 22.3389 18.5535 23.3263 17.777 24.0042C17.0004 24.6722 15.8555 25.0063 14.3423 25.0063H13.1924V27.6589C13.1924 27.8161 13.1128 27.8947 12.9535 27.8947H10.6836ZM13.1924 19.3768V22.7073H14.2676C14.865 22.7073 15.3179 22.5747 15.6266 22.3095C15.9451 22.0442 16.1044 21.6119 16.1044 21.0126C16.1044 19.9221 15.4922 19.3768 14.2676 19.3768H13.1924ZM18.7567 27.8947C18.6671 27.8947 18.6024 27.8701 18.5626 27.821C18.5327 27.7719 18.5327 27.708 18.5626 27.6294L22.8783 17.2547C22.9281 17.1368 23.0177 17.0779 23.1471 17.0779H25.0287C25.1581 17.0779 25.2477 17.1368 25.2975 17.2547L29.6133 27.6294C29.6232 27.6491 29.6282 27.6835 29.6282 27.7326C29.6282 27.7817 29.6083 27.821 29.5685 27.8505C29.5386 27.88 29.4938 27.8947 29.4341 27.8947H26.9253C26.7859 27.8947 26.6963 27.8309 26.6565 27.7031L26.0591 26.0379H22.0719L21.4746 27.7031C21.4348 27.8309 21.3452 27.8947 21.2058 27.8947H18.7567ZM22.8634 23.7979H25.2527L24.0431 20.4673L22.8634 23.7979ZM32.4703 27.8947C32.311 27.8947 32.2314 27.8161 32.2314 27.6589V23.9305L28.3338 17.3579C28.3039 17.3088 28.289 17.2646 28.289 17.2252C28.289 17.127 28.3587 17.0779 28.498 17.0779H31.1711C31.3005 17.0779 31.3951 17.1319 31.4548 17.24L33.665 21.4547L35.8452 17.24C35.8851 17.1319 35.9747 17.0779 36.114 17.0779H38.7423C38.812 17.0779 38.8668 17.0926 38.9066 17.1221C38.9464 17.1417 38.9663 17.1761 38.9663 17.2252C38.9663 17.2646 38.9514 17.3088 38.9215 17.3579L35.0239 23.8863V27.6589C35.0239 27.7277 34.999 27.7867 34.9492 27.8358C34.9094 27.8751 34.8547 27.8947 34.785 27.8947H32.4703Z"
                fill="white" />
        </g>
    </g>
    <defs>
        <filter id="filter0_d_13_215" x="0" y="0" width="48" height="48"
            filterUnits="userSpaceOnUse" color-interpolation-filters="sRGB">
            <feFlood flood-opacity="0" result="BackgroundImageFix" />
            <feColorMatrix in="SourceAlpha" type="matrix"
                values="0 0 0 0 0 0 0 0 0 0 0 0 0 0 0 0 0 0 127 0" result="hardAlpha" />
            <feOffset dy="4" />
            <feGaussianBlur stdDeviation="2" />
            <feComposite in2="hardAlpha" operator="out" />
            <feColorMatrix type="matrix" values="0 0 0 0 0 0 0 0 0 0 0 0 0 0 0 0 0 0 0.25 0" />
            <feBlend mode="normal" in2="BackgroundImageFix" result="effect1_dropShadow_13_215" />
            <feBlend mode="normal" in="SourceGraphic" in2="effect1_dropShadow_13_215" result="shape" />
        </filter>
        <linearGradient id="paint0_linear_13_215" x1="8.26676" y1="5.26319" x2="38.2676"
            y2="35.3974" gradientUnits="userSpaceOnUse">
            <stop stop-color="#14AE5C" />
            <stop offset="1" stop-color="#056734" />
        </linearGradient>
        <clipPath id="clip0_13_215">
            <rect x="4" width="40" height="40" rx="10" fill="white" />
        </clipPath>
    </defs>
</svg>
    